<svg viewBox="0 0 652 41" xmlns="http://www.w3.org/2000/svg">
<path d="M17.7857 2.695C18.0424 2.40167 18.2624 2.255 18.4457 2.255C18.7757 2.255 19.0874 2.40167 19.3807 2.695C19.7107 2.98833 19.8757 3.28166 19.8757 3.575C19.8757 3.795 19.674 4.30833 19.2707 5.115C18.8674 5.885 18.3907 6.74667 17.8407 7.7C17.5474 8.17667 17.089 8.87333 16.4657 9.79C15.8424 10.67 15.164 11.66 14.4307 12.76C13.6974 13.86 12.9274 14.9967 12.1207 16.17C11.314 17.3067 10.5624 18.3517 9.86568 19.305C9.75568 19.4517 9.64568 19.5983 9.53568 19.745C9.42568 19.8917 9.33402 20.02 9.26068 20.13C8.85735 20.68 8.34402 21.3767 7.72068 22.22C7.13402 23.0267 6.45568 23.925 5.68568 24.915C5.42902 25.2083 5.19068 25.5017 4.97068 25.795C4.78735 26.0883 4.62235 26.3267 4.47568 26.51L3.98068 27.17C3.98068 27.2067 4.14568 27.2067 4.47568 27.17C4.84235 27.1333 5.26402 27.0783 5.74068 27.005C7.13402 26.785 8.34402 26.6383 9.37068 26.565C10.434 26.455 11.4607 26.4 12.4507 26.4C13.8807 26.4 14.944 26.51 15.6407 26.73C16.374 26.9133 17.034 27.2983 17.6207 27.885C18.024 28.2883 18.244 28.6183 18.2807 28.875C18.354 29.095 18.244 29.205 17.9507 29.205C17.5474 29.205 17.1624 29.0217 16.7957 28.655C16.7224 28.5817 16.6124 28.49 16.4657 28.38C16.3557 28.27 16.2274 28.1967 16.0807 28.16C16.0074 28.1233 15.9157 28.0867 15.8057 28.05C15.7324 28.0133 15.604 27.995 15.4207 27.995C15.274 27.9583 15.0357 27.94 14.7057 27.94C14.4124 27.94 14.009 27.94 13.4957 27.94C12.6524 27.94 11.9374 27.9583 11.3507 27.995C10.8007 28.0317 10.214 28.0867 9.59068 28.16C9.18735 28.2333 8.69235 28.3067 8.10568 28.38C7.55568 28.4533 7.00568 28.545 6.45568 28.655C5.90568 28.7283 5.39235 28.8017 4.91568 28.875C4.47568 28.9483 4.16402 29.0033 3.98068 29.04C3.68735 29.1133 3.35735 29.15 2.99068 29.15C2.47735 29.15 2.03735 29.04 1.67068 28.82C1.30402 28.6 1.04735 28.3067 0.900684 27.94C0.864017 27.83 0.864017 27.7017 0.900684 27.555C0.93735 27.4083 1.02902 27.1883 1.17568 26.895C1.35902 26.6017 1.61568 26.1983 1.94568 25.685C2.31235 25.1717 2.78902 24.475 3.37568 23.595C3.66902 23.1917 4.01735 22.6967 4.42068 22.11C4.86068 21.5233 5.30068 20.9 5.74068 20.24C6.18068 19.58 6.62068 18.92 7.06068 18.26C7.53735 17.5633 7.97735 16.9217 8.38068 16.335C8.74735 15.785 9.15068 15.1983 9.59068 14.575C10.0307 13.915 10.4524 13.2917 10.8557 12.705C11.259 12.1183 11.644 11.5683 12.0107 11.055C12.3774 10.5417 12.6707 10.12 12.8907 9.79C13.954 8.25 14.889 6.89333 15.6957 5.72C16.5024 4.54667 16.9974 3.81333 17.1807 3.52C17.254 3.41 17.3457 3.28166 17.4557 3.135C17.6024 2.95166 17.7124 2.805 17.7857 2.695ZM33.2274 13.53C32.824 13.8233 32.384 13.7317 31.9074 13.255C31.614 12.9617 31.4674 12.705 31.4674 12.485C31.4674 12.2283 31.504 12.0267 31.5774 11.88C31.6507 11.7333 31.8524 11.55 32.1824 11.33C32.5124 11.0733 32.7874 10.9083 33.0074 10.835C33.3007 10.6883 33.6124 10.7067 33.9424 10.89C34.2724 11.0367 34.5107 11.2933 34.6574 11.66C34.804 11.9533 34.8224 12.1733 34.7124 12.32C34.639 12.5033 34.144 12.9067 33.2274 13.53ZM46.7574 20.68C46.8674 20.9733 46.8674 21.1933 46.7574 21.34C46.6474 21.45 46.2807 21.5967 45.6574 21.78C45.0707 21.9633 44.319 22.1833 43.4024 22.44C42.5224 22.66 41.6607 22.8983 40.8174 23.155C40.524 23.2283 39.8274 23.43 38.7274 23.76C37.664 24.0533 36.4907 24.3833 35.2074 24.75C34.8774 24.8233 34.5474 24.915 34.2174 25.025C33.8874 25.0983 33.5757 25.19 33.2824 25.3C30.8257 25.8867 28.9007 26.235 27.5074 26.345C26.1507 26.455 25.1607 26.4733 24.5374 26.4C24.244 26.3633 24.024 26.3267 23.8774 26.29C23.7674 26.2533 23.6024 26.18 23.3824 26.07C22.6124 25.7033 22.0624 25.2083 21.7324 24.585C21.4024 23.925 21.384 23.2283 21.6774 22.495C21.934 21.7617 22.3924 20.9733 23.0524 20.13C23.6757 19.2867 24.4457 18.4617 25.3624 17.655C25.839 17.215 26.444 16.6833 27.1774 16.06C27.9474 15.4367 28.589 14.96 29.1024 14.63C29.2857 14.4833 29.469 14.3733 29.6524 14.3C29.8357 14.19 29.964 14.135 30.0374 14.135C30.3307 14.135 30.6057 14.3 30.8624 14.63C31.119 14.9233 31.2107 15.18 31.1374 15.4C31.064 15.5467 30.844 15.8033 30.4774 16.17C30.1107 16.5367 29.4324 17.16 28.4424 18.04C27.929 18.5167 27.4157 19.0117 26.9024 19.525C26.389 20.0017 25.9124 20.46 25.4724 20.9C25.0324 21.34 24.6474 21.7433 24.3174 22.11C23.9874 22.44 23.7674 22.6967 23.6574 22.88C23.584 22.9533 23.5474 23.0083 23.5474 23.045C23.4374 23.4483 23.4374 23.7783 23.5474 24.035C23.6207 24.255 23.749 24.4383 23.9324 24.585C24.1157 24.7317 24.3724 24.8417 24.7024 24.915C25.8757 24.7317 26.9207 24.5667 27.8374 24.42C28.754 24.2733 29.524 24.1083 30.1474 23.925C30.8807 23.7783 31.5407 23.595 32.1274 23.375C32.5674 23.265 32.934 23.1733 33.2274 23.1C33.5574 23.0267 33.814 22.9533 33.9974 22.88C34.2907 22.8067 34.584 22.7333 34.8774 22.66C35.2074 22.5867 35.4457 22.5317 35.5924 22.495C36.9857 22.1283 38.269 21.78 39.4424 21.45C40.6524 21.12 41.6974 20.845 42.5774 20.625C43.494 20.3683 44.2274 20.185 44.7774 20.075C45.3274 19.9283 45.6574 19.855 45.7674 19.855C46.1707 19.855 46.5007 20.13 46.7574 20.68ZM79.7763 20.625C79.9229 20.9183 79.9413 21.1383 79.8313 21.285C79.7213 21.395 79.3546 21.5417 78.7313 21.725C78.1446 21.9083 77.3929 22.1283 76.4763 22.385C75.5963 22.6417 74.7346 22.88 73.8913 23.1C73.5979 23.1733 72.9013 23.375 71.8013 23.705C70.7013 23.9983 69.5096 24.3283 68.2263 24.695C68.0796 24.7317 67.9329 24.7683 67.7863 24.805C67.6396 24.8417 67.4746 24.8967 67.2913 24.97C66.8513 25.08 66.3379 25.2267 65.7513 25.41C64.2479 25.8867 62.7263 26.3083 61.1863 26.675C59.6829 27.0417 58.1429 27.2067 56.5663 27.17C55.0263 27.1333 53.5046 26.8217 52.0013 26.235C50.5346 25.6483 49.3246 24.7133 48.3713 23.43C48.1879 24.0533 47.9863 24.6767 47.7663 25.3C47.5829 25.8867 47.3629 26.4733 47.1063 27.06C45.8229 30.25 44.1363 33.165 42.0463 35.805C40.9829 37.125 39.8463 38.3717 38.6363 39.545C38.3429 39.8017 38.0863 40.0033 37.8663 40.15C37.6463 40.3333 37.3346 40.4067 36.9313 40.37C36.5646 40.3333 36.2529 40.1683 35.9963 39.875C35.7029 39.6183 35.5196 39.3067 35.4463 38.94C35.3363 38.4633 35.3546 37.9867 35.5013 37.51C35.6479 37.0333 35.8313 36.575 36.0513 36.135C37.0046 34.045 38.0679 32.01 39.2413 30.03C40.3779 28.0133 41.5513 26.015 42.7613 24.035C43.9346 22.165 45.1446 20.3133 46.3913 18.48C47.6379 16.61 48.9396 14.8133 50.2963 13.09C51.6896 11.3667 53.1563 9.735 54.6963 8.195C56.2729 6.655 57.9596 5.24333 59.7563 3.96C60.7096 3.3 61.6813 2.71333 62.6713 2.2C63.6979 1.65 64.7613 1.22833 65.8613 0.935C66.5946 0.751667 67.3463 0.678333 68.1163 0.714999C68.9229 0.751666 69.5463 1.06333 69.9863 1.65C70.2796 2.01667 70.4629 2.43833 70.5363 2.915C70.6096 3.39166 70.5913 3.85 70.4813 4.29C70.3713 4.73 70.1879 5.15166 69.9313 5.555C69.7113 5.92167 69.4729 6.28833 69.2163 6.655C68.0063 8.34167 66.6496 9.88167 65.1463 11.275C63.6429 12.6683 62.0296 13.97 60.3063 15.18C58.6196 16.3533 56.8596 17.4533 55.0263 18.48C53.1929 19.47 51.3596 20.4233 49.5263 21.34C49.2329 21.4867 49.0496 21.6333 48.9763 21.78C48.9029 21.9633 48.9579 22.22 49.1413 22.55C49.8379 23.76 50.9196 24.6217 52.3863 25.135C52.7896 25.2083 53.3579 25.2633 54.0913 25.3C54.8246 25.3367 55.7229 25.3183 56.7863 25.245C57.8863 25.1717 59.1329 25.0067 60.5263 24.75C61.9196 24.4933 63.4779 24.09 65.2013 23.54C65.6046 23.43 65.9713 23.32 66.3013 23.21C66.6313 23.1 66.8879 23.0083 67.0713 22.935C67.3646 22.8617 67.6579 22.7883 67.9513 22.715C68.2813 22.6417 68.5196 22.5683 68.6663 22.495C70.0229 22.1283 71.2879 21.78 72.4613 21.45C73.6713 21.12 74.7346 20.845 75.6513 20.625C76.5679 20.3683 77.3013 20.1667 77.8513 20.02C78.4013 19.8733 78.7313 19.8 78.8413 19.8C79.0246 19.8 79.2079 19.8917 79.3913 20.075C79.5746 20.2217 79.7029 20.405 79.7763 20.625ZM51.8363 15.18C51.5429 15.5467 51.2313 15.9683 50.9013 16.445C50.6079 16.885 50.3146 17.3067 50.0213 17.71C49.7646 18.0767 49.5446 18.3883 49.3613 18.645C49.2146 18.9017 49.1596 19.03 49.1963 19.03C49.1963 19.03 49.3613 18.9383 49.6913 18.755C50.0579 18.5717 50.4796 18.3517 50.9563 18.095C51.4329 17.8383 51.9279 17.5633 52.4413 17.27C52.9913 16.9767 53.4679 16.72 53.8713 16.5C56.6946 14.9233 59.2246 13.2917 61.4613 11.605C63.6979 9.88167 65.5129 8.195 66.9063 6.545C67.7129 5.59166 68.3363 4.71166 68.7763 3.905C69.2529 3.06166 69.3996 2.56666 69.2163 2.42C69.1063 2.34666 68.7946 2.32833 68.2813 2.365C67.8046 2.40166 67.3646 2.45666 66.9613 2.53C64.4313 3.26333 61.5346 5.115 58.2713 8.085C57.2813 9.00167 56.1813 10.1383 54.9713 11.495C53.7613 12.815 52.7163 14.0433 51.8363 15.18ZM45.7863 24.915C46.1529 23.9983 46.3363 23.4667 46.3363 23.32C46.3363 23.2833 46.2446 23.375 46.0613 23.595C45.9146 23.815 45.7313 24.09 45.5113 24.42C45.1813 24.97 44.8146 25.5933 44.4113 26.29C43.9713 26.95 43.5313 27.6283 43.0913 28.325C42.6513 29.0217 42.2479 29.6633 41.8813 30.25C41.5146 30.8367 41.2213 31.3133 41.0013 31.68C40.7813 32.0833 40.5246 32.56 40.2313 33.11C39.9013 33.66 39.5896 34.1917 39.2963 34.705C39.0029 35.255 38.7646 35.7133 38.5813 36.08C38.3613 36.4467 38.2513 36.6483 38.2513 36.685C38.2513 36.7217 38.3429 36.63 38.5263 36.41C38.7096 36.2267 38.9296 35.9883 39.1863 35.695C40.7996 33.825 42.1196 32.065 43.1463 30.415C44.1729 28.7283 45.0529 26.895 45.7863 24.915ZM105.66 20.68C105.806 20.9733 105.825 21.175 105.715 21.285C105.605 21.395 105.238 21.5417 104.615 21.725C104.321 21.7983 104.01 21.89 103.68 22C103.35 22.11 102.983 22.22 102.58 22.33C102.36 22.4033 101.956 22.55 101.37 22.77C100.783 22.9533 100.068 23.1733 99.2248 23.43C98.3815 23.6867 97.4648 23.9617 96.4748 24.255C95.4848 24.5117 94.4765 24.75 93.4498 24.97C93.2298 25.0433 93.0098 25.1167 92.7898 25.19C92.5698 25.2267 92.3498 25.2817 92.1298 25.355C90.8831 25.7217 89.6365 26.07 88.3898 26.4C87.1798 26.73 85.9331 26.9317 84.6498 27.005C83.8065 27.0783 82.9448 27.0417 82.0648 26.895C81.2215 26.7483 80.4698 26.4183 79.8098 25.905C79.0765 25.3183 78.5815 24.5667 78.3248 23.65C78.0681 22.7333 78.0315 21.835 78.2148 20.955C78.3981 20.0383 78.7465 19.2133 79.2598 18.48C79.8098 17.71 80.4331 17.0133 81.1298 16.39C81.5331 16.06 81.9548 15.7667 82.3948 15.51C82.8348 15.2167 83.3115 14.9967 83.8248 14.85C84.3381 14.7033 84.8515 14.6483 85.3648 14.685C85.8781 14.685 86.3731 14.8133 86.8498 15.07C87.3631 15.3633 87.7481 15.8217 88.0048 16.445C88.2981 17.0317 88.2981 17.5817 88.0048 18.095C87.8581 18.3883 87.6381 18.6267 87.3448 18.81C87.0881 18.9933 86.8131 19.1583 86.5198 19.305C84.6498 20.2583 82.7431 20.9 80.7998 21.23C80.4698 21.3033 80.2498 21.395 80.1398 21.505C80.0298 21.6883 79.9748 21.8533 79.9748 22C79.9015 22.33 79.8648 22.66 79.8648 22.99C79.8648 23.2833 79.9381 23.5767 80.0848 23.87C80.3415 24.31 80.7081 24.6033 81.1848 24.75C81.6981 24.8967 82.2115 24.97 82.7248 24.97C83.9715 24.9333 85.1998 24.7867 86.4098 24.53C87.6565 24.2367 88.8848 23.925 90.0948 23.595C90.3881 23.5217 90.7181 23.4483 91.0848 23.375C91.4515 23.265 91.7998 23.1733 92.1298 23.1C92.5331 22.99 92.9365 22.88 93.3398 22.77C93.5965 22.6967 93.8348 22.6417 94.0548 22.605C94.2748 22.5317 94.4398 22.4767 94.5498 22.44C95.9065 22.0733 97.1715 21.725 98.3448 21.395C99.5548 21.065 100.618 20.79 101.535 20.57C102.451 20.3133 103.185 20.13 103.735 20.02C104.285 19.8733 104.615 19.8 104.725 19.8C104.908 19.8 105.091 19.8917 105.275 20.075C105.458 20.2217 105.586 20.4233 105.66 20.68ZM81.8448 18.755L82.8898 18.425C83.8065 18.095 84.6498 17.7283 85.4198 17.325C86.1898 16.9217 86.5565 16.6467 86.5198 16.5C86.4465 16.39 86.1531 16.39 85.6398 16.5C85.1631 16.5733 84.7048 16.72 84.2648 16.94C83.9715 17.0867 83.5865 17.325 83.1098 17.655C82.6698 17.9483 82.3581 18.2233 82.1748 18.48L81.8448 18.755ZM114.661 29.755C114.148 30.2683 113.524 30.525 112.791 30.525C112.058 30.525 111.434 30.2683 110.921 29.755C110.408 29.205 110.151 28.5633 110.151 27.83C110.151 27.06 110.408 26.4183 110.921 25.905C111.434 25.3917 112.058 25.135 112.791 25.135C113.524 25.135 114.148 25.3917 114.661 25.905C115.211 26.4183 115.486 27.06 115.486 27.83C115.486 28.5633 115.211 29.205 114.661 29.755ZM161.503 2.365C161.723 2.29167 161.888 2.27333 161.998 2.31C162.108 2.31 162.309 2.365 162.603 2.475C163.116 2.65833 163.538 2.93333 163.868 3.3C164.234 3.66667 164.381 3.99667 164.308 4.29C164.271 4.36333 164.088 4.74833 163.758 5.445C163.428 6.14166 163.043 6.94833 162.603 7.865C162.163 8.78167 161.778 9.55167 161.448 10.175C161.154 10.7983 160.879 11.3667 160.623 11.88C160.403 12.3933 160.183 12.8883 159.963 13.365C159.779 13.805 159.578 14.3183 159.358 14.905C159.138 15.455 158.936 16.005 158.753 16.555C158.569 17.0683 158.404 17.545 158.258 17.985C158.111 18.3883 158.001 18.7367 157.928 19.03C157.891 19.2867 157.91 19.415 157.983 19.415C158.019 19.415 158.331 19.14 158.918 18.59C159.504 18.0033 160.201 17.2883 161.008 16.445C161.851 15.6017 162.676 14.7767 163.483 13.97C164.326 13.1633 164.931 12.595 165.298 12.265C166.031 11.605 166.838 10.9267 167.718 10.23C168.635 9.49667 169.57 8.78167 170.523 8.085C171.476 7.35167 172.43 6.655 173.383 5.995C174.336 5.335 175.235 4.74833 176.078 4.235C176.628 3.905 177.031 3.72167 177.288 3.685C177.544 3.61166 177.856 3.64833 178.223 3.795C179.103 4.19833 179.543 4.74833 179.543 5.445C179.543 5.885 179.25 6.61833 178.663 7.645C178.113 8.67167 177.16 10.175 175.803 12.155C174.96 13.4017 174.135 14.685 173.328 16.005C172.521 17.2883 171.696 18.645 170.853 20.075C167.846 25.2083 166.214 28.875 165.958 31.075C165.921 31.2217 165.885 31.3683 165.848 31.515C165.848 31.625 165.811 31.6983 165.738 31.735C165.518 32.0283 165.096 32.0833 164.473 31.9C163.849 31.7167 163.538 31.3133 163.538 30.69C163.501 30.3967 163.501 30.0667 163.538 29.7C163.574 29.2967 163.63 28.9667 163.703 28.71C163.923 27.7933 164.234 26.8217 164.638 25.795C165.078 24.7683 165.738 23.3933 166.618 21.67C167.131 20.6067 167.7 19.4883 168.323 18.315C168.983 17.105 169.624 15.9317 170.248 14.795C170.908 13.6217 171.531 12.54 172.118 11.55C172.741 10.56 173.273 9.735 173.713 9.075C174.006 8.635 174.281 8.23167 174.538 7.865C174.795 7.46167 174.96 7.22333 175.033 7.15L175.253 6.875L174.978 6.985C174.868 7.05833 174.63 7.22333 174.263 7.48C173.933 7.7 173.53 7.95667 173.053 8.25C172.613 8.54333 172.155 8.855 171.678 9.185C171.238 9.515 170.871 9.79 170.578 10.01C169.918 10.4867 169.313 10.9633 168.763 11.44C168.213 11.88 167.626 12.375 167.003 12.925C166.416 13.4383 165.793 14.025 165.133 14.685C164.473 15.3083 163.703 16.06 162.823 16.94C161.796 17.9667 160.99 18.7733 160.403 19.36C159.816 19.9467 159.339 20.3867 158.973 20.68C158.643 20.9367 158.368 21.1017 158.148 21.175C157.965 21.2483 157.763 21.285 157.543 21.285C157.286 21.285 156.993 21.2117 156.663 21.065C156.369 20.8817 156.149 20.6983 156.003 20.515C155.856 20.3317 155.783 19.9467 155.783 19.36C155.819 18.7733 155.93 18.1133 156.113 17.38C156.186 17.0867 156.314 16.61 156.498 15.95C156.718 15.2533 156.938 14.5383 157.158 13.805C157.414 13.0717 157.634 12.3933 157.818 11.77C158.038 11.1467 158.203 10.725 158.313 10.505C158.386 10.3583 158.459 10.1933 158.533 10.01C158.606 9.82667 158.68 9.64333 158.753 9.46C158.826 9.27667 158.899 9.075 158.973 8.855C158.973 8.855 158.844 8.98333 158.588 9.24C158.368 9.46 158.093 9.735 157.763 10.065C157.433 10.395 157.084 10.7433 156.718 11.11C156.388 11.44 156.113 11.7333 155.893 11.99C153.803 14.3 151.841 16.5367 150.008 18.7C148.174 20.8633 146.451 23.0267 144.838 25.19C144.251 25.96 143.793 26.565 143.463 27.005C143.133 27.4083 142.876 27.72 142.693 27.94C142.546 28.16 142.436 28.3067 142.363 28.38C142.289 28.4533 142.216 28.5083 142.143 28.545C141.739 28.7283 141.299 28.7283 140.823 28.545C140.383 28.3617 140.163 28.0867 140.163 27.72C140.163 27.3167 140.566 26.4733 141.373 25.19C142.179 23.9067 143.151 22.495 144.288 20.955C144.984 20.0383 145.699 19.1217 146.433 18.205C147.166 17.2883 148.009 16.2983 148.963 15.235C149.916 14.1717 150.998 12.98 152.208 11.66C153.454 10.34 154.921 8.8 156.608 7.04C157.598 6.05 158.386 5.26167 158.973 4.675C159.559 4.05167 160.018 3.575 160.348 3.245C160.678 2.915 160.916 2.695 161.063 2.585C161.246 2.475 161.393 2.40166 161.503 2.365ZM207.442 20.68C207.552 20.9733 207.552 21.175 207.442 21.285C207.332 21.395 206.966 21.5417 206.342 21.725C204.582 22.275 202.822 22.7883 201.062 23.265C199.302 23.7417 197.542 24.2367 195.782 24.75C195.416 24.8233 195.049 24.915 194.682 25.025C194.352 25.0983 194.004 25.1717 193.637 25.245C193.234 25.3183 192.867 25.355 192.537 25.355C192.207 25.3183 191.841 25.2817 191.437 25.245C190.704 25.1717 189.971 25.08 189.237 24.97C188.541 24.86 187.844 24.695 187.147 24.475C186.927 24.4017 186.726 24.3467 186.542 24.31C186.359 24.2367 186.194 24.1633 186.047 24.09L185.662 23.925L184.782 24.53C183.902 25.19 182.967 25.7583 181.977 26.235C180.987 26.7117 179.997 27.0967 179.007 27.39C178.237 27.61 177.596 27.6833 177.082 27.61C176.569 27.5 176.111 27.2067 175.707 26.73C175.304 26.29 175.102 25.7767 175.102 25.19C175.102 24.75 175.322 24.1267 175.762 23.32C176.166 22.5133 176.679 21.6883 177.302 20.845C177.632 20.405 178.017 19.965 178.457 19.525C178.897 19.0483 179.356 18.59 179.832 18.15C180.309 17.71 180.767 17.325 181.207 16.995C181.684 16.6283 182.087 16.3533 182.417 16.17C183.004 15.8767 183.499 15.895 183.902 16.225C184.159 16.3717 184.397 16.4817 184.617 16.555C185.057 16.6283 185.534 16.83 186.047 17.16C186.597 17.4533 187.019 17.8017 187.312 18.205C187.752 18.865 187.936 19.58 187.862 20.35C187.826 21.12 187.532 21.8717 186.982 22.605L186.707 22.88L187.642 23.1C188.962 23.43 190.282 23.5217 191.602 23.375C192.959 23.2283 194.279 22.99 195.562 22.66C196.222 22.4767 196.864 22.2933 197.487 22.11C198.147 21.9267 198.807 21.7617 199.467 21.615C200.274 21.4317 201.081 21.23 201.887 21.01C202.694 20.7533 203.501 20.515 204.307 20.295C204.637 20.2217 204.986 20.13 205.352 20.02C205.756 19.91 206.122 19.855 206.452 19.855C206.856 19.855 207.186 20.13 207.442 20.68ZM183.847 18.535C183.554 18.9383 183.499 19.4883 183.682 20.185C183.792 20.515 183.957 20.8817 184.177 21.285C184.397 21.6517 184.562 21.835 184.672 21.835C184.782 21.835 184.966 21.6883 185.222 21.395C185.479 21.065 185.699 20.7533 185.882 20.46C186.029 20.13 186.139 19.7633 186.212 19.36C186.212 19.1033 186.194 18.9383 186.157 18.865C186.157 18.7917 186.102 18.6633 185.992 18.48C185.809 18.2967 185.589 18.1683 185.332 18.095C184.672 17.875 184.177 18.0217 183.847 18.535ZM183.737 22.77L183.187 22.11C183.041 21.9267 182.876 21.7067 182.692 21.45C182.546 21.1933 182.436 20.9733 182.362 20.79C182.142 20.4233 181.996 20.1117 181.922 19.855C181.886 19.7817 181.831 19.7633 181.757 19.8C181.684 19.8367 181.482 20.02 181.152 20.35C179.686 21.8533 178.549 23.32 177.742 24.75C177.449 25.2633 177.302 25.5933 177.302 25.74C177.266 25.85 177.339 25.8683 177.522 25.795C178.476 25.6117 179.466 25.2817 180.492 24.805C181.556 24.2917 182.491 23.7417 183.297 23.155L183.737 22.77ZM252.143 20.735C252.29 21.0283 252.308 21.23 252.198 21.34C252.088 21.45 251.722 21.5967 251.098 21.78C249.228 22.3667 247.358 22.9167 245.488 23.43C243.655 23.9067 241.803 24.42 239.933 24.97C238.577 25.41 237.202 25.8317 235.808 26.235C234.452 26.6017 233.058 26.8217 231.628 26.895C231.188 26.895 230.693 26.8583 230.143 26.785C229.63 26.7117 229.153 26.5833 228.713 26.4C228.273 26.18 227.907 25.8867 227.613 25.52C227.32 25.1533 227.173 24.6767 227.173 24.09C227.173 23.65 227.302 23.0083 227.558 22.165C227.852 21.285 228.237 20.3867 228.713 19.47C228.897 19.0667 228.933 18.8467 228.823 18.81C228.75 18.7733 228.31 18.8833 227.503 19.14C225.853 19.6533 224.277 20.295 222.773 21.065C221.27 21.835 219.565 22.9167 217.658 24.31C216.925 24.8233 216.448 25.1167 216.228 25.19C216.008 25.2633 215.752 25.2267 215.458 25.08C214.945 24.8233 214.652 24.4933 214.578 24.09C214.542 23.98 214.578 23.7967 214.688 23.54C214.798 23.2467 215.037 22.7333 215.403 22C215.953 20.9 216.485 19.8917 216.998 18.975C217.512 18.0217 217.988 17.2333 218.428 16.61C218.355 16.6467 218.282 16.6833 218.208 16.72C218.135 16.72 218.043 16.7383 217.933 16.775C216.283 17.3983 214.707 18.1867 213.203 19.14C211.7 20.0933 209.995 21.395 208.088 23.045C207.392 23.6317 206.915 23.98 206.658 24.09C206.438 24.2 206.182 24.1633 205.888 23.98C205.705 23.8333 205.54 23.65 205.393 23.43C205.21 23.1733 205.1 22.9533 205.063 22.77C205.027 22.6233 205.063 22.385 205.173 22.055C205.283 21.6883 205.503 21.0833 205.833 20.24C206.677 18.26 207.447 16.555 208.143 15.125C208.84 13.695 209.408 12.6867 209.848 12.1C210.105 11.8067 210.288 11.6417 210.398 11.605C210.545 11.5683 210.765 11.6417 211.058 11.825C211.315 11.9717 211.517 12.1733 211.663 12.43C211.81 12.65 211.865 12.87 211.828 13.09C211.792 13.1633 211.7 13.365 211.553 13.695C211.407 13.9883 211.242 14.3183 211.058 14.685C210.875 15.0883 210.655 15.5283 210.398 16.005C210.178 16.4817 209.958 16.9583 209.738 17.435C209.518 17.875 209.317 18.2783 209.133 18.645C208.95 19.0117 208.822 19.2867 208.748 19.47L208.528 19.965L209.518 19.25C212.342 17.2333 215.165 15.7667 217.988 14.85C218.392 14.74 218.795 14.7033 219.198 14.74C219.602 14.74 219.95 14.795 220.243 14.905C220.39 14.9783 220.518 15.0333 220.628 15.07C220.885 15.18 221.087 15.3267 221.233 15.51C221.38 15.6933 221.417 15.8767 221.343 16.06C221.343 16.1333 221.27 16.3167 221.123 16.61C220.977 16.8667 220.793 17.1417 220.573 17.435C220.39 17.7283 220.17 18.0767 219.913 18.48C219.693 18.8833 219.473 19.2867 219.253 19.69C219.033 20.0567 218.832 20.405 218.648 20.735C218.465 21.0283 218.337 21.2483 218.263 21.395L218.098 21.78L219.088 21.175C220.445 20.3683 221.838 19.6533 223.268 19.03C224.735 18.4067 226.165 17.93 227.558 17.6C228.035 17.4533 228.493 17.3983 228.933 17.435C229.41 17.4717 229.777 17.5633 230.033 17.71C230.51 18.0033 230.767 18.3517 230.803 18.755C230.84 19.1217 230.693 19.7083 230.363 20.515C230.033 21.3583 229.758 22.0183 229.538 22.495C229.355 22.9717 229.208 23.3567 229.098 23.65C229.025 23.9067 228.97 24.1083 228.933 24.255C228.897 24.4017 228.878 24.5483 228.878 24.695C228.842 24.9883 228.823 25.1717 228.823 25.245C228.86 25.2817 228.952 25.3367 229.098 25.41C229.355 25.4833 229.74 25.5017 230.253 25.465C231.317 25.3917 232.38 25.19 233.443 24.86C234.507 24.4933 235.533 24.145 236.523 23.815C237.037 23.6317 237.55 23.4667 238.063 23.32C238.613 23.1733 239.163 23.0267 239.713 22.88C240.96 22.5133 242.207 22.165 243.453 21.835C244.7 21.505 245.965 21.175 247.248 20.845C247.688 20.6983 248.128 20.57 248.568 20.46C249.045 20.35 249.522 20.24 249.998 20.13C250.182 20.0567 250.365 20.0017 250.548 19.965C250.768 19.9283 250.988 19.91 251.208 19.91C251.392 19.91 251.575 19.9833 251.758 20.13C251.942 20.2767 252.07 20.4783 252.143 20.735ZM278.126 20.68C278.272 20.9733 278.291 21.175 278.181 21.285C278.071 21.395 277.704 21.5417 277.081 21.725C276.787 21.7983 276.476 21.89 276.146 22C275.816 22.11 275.449 22.22 275.046 22.33C274.826 22.4033 274.422 22.55 273.836 22.77C273.249 22.9533 272.534 23.1733 271.691 23.43C270.847 23.6867 269.931 23.9617 268.941 24.255C267.951 24.5117 266.942 24.75 265.916 24.97C265.696 25.0433 265.476 25.1167 265.256 25.19C265.036 25.2267 264.816 25.2817 264.596 25.355C263.349 25.7217 262.102 26.07 260.856 26.4C259.646 26.73 258.399 26.9317 257.116 27.005C256.272 27.0783 255.411 27.0417 254.531 26.895C253.687 26.7483 252.936 26.4183 252.276 25.905C251.542 25.3183 251.047 24.5667 250.791 23.65C250.534 22.7333 250.497 21.835 250.681 20.955C250.864 20.0383 251.212 19.2133 251.726 18.48C252.276 17.71 252.899 17.0133 253.596 16.39C253.999 16.06 254.421 15.7667 254.861 15.51C255.301 15.2167 255.777 14.9967 256.291 14.85C256.804 14.7033 257.317 14.6483 257.831 14.685C258.344 14.685 258.839 14.8133 259.316 15.07C259.829 15.3633 260.214 15.8217 260.471 16.445C260.764 17.0317 260.764 17.5817 260.471 18.095C260.324 18.3883 260.104 18.6267 259.811 18.81C259.554 18.9933 259.279 19.1583 258.986 19.305C257.116 20.2583 255.209 20.9 253.266 21.23C252.936 21.3033 252.716 21.395 252.606 21.505C252.496 21.6883 252.441 21.8533 252.441 22C252.367 22.33 252.331 22.66 252.331 22.99C252.331 23.2833 252.404 23.5767 252.551 23.87C252.807 24.31 253.174 24.6033 253.651 24.75C254.164 24.8967 254.677 24.97 255.191 24.97C256.437 24.9333 257.666 24.7867 258.876 24.53C260.122 24.2367 261.351 23.925 262.561 23.595C262.854 23.5217 263.184 23.4483 263.551 23.375C263.917 23.265 264.266 23.1733 264.596 23.1C264.999 22.99 265.402 22.88 265.806 22.77C266.062 22.6967 266.301 22.6417 266.521 22.605C266.741 22.5317 266.906 22.4767 267.016 22.44C268.372 22.0733 269.637 21.725 270.811 21.395C272.021 21.065 273.084 20.79 274.001 20.57C274.917 20.3133 275.651 20.13 276.201 20.02C276.751 19.8733 277.081 19.8 277.191 19.8C277.374 19.8 277.557 19.8917 277.741 20.075C277.924 20.2217 278.052 20.4233 278.126 20.68ZM254.311 18.755L255.356 18.425C256.272 18.095 257.116 17.7283 257.886 17.325C258.656 16.9217 259.022 16.6467 258.986 16.5C258.912 16.39 258.619 16.39 258.106 16.5C257.629 16.5733 257.171 16.72 256.731 16.94C256.437 17.0867 256.052 17.325 255.576 17.655C255.136 17.9483 254.824 18.2233 254.641 18.48L254.311 18.755ZM312.757 20.735C312.903 21.0283 312.922 21.23 312.812 21.34C312.702 21.45 312.335 21.5967 311.712 21.78C309.842 22.3667 307.972 22.9167 306.102 23.43C304.268 23.9067 302.417 24.42 300.547 24.97C299.153 25.41 297.778 25.8317 296.422 26.235C295.065 26.6017 293.672 26.8217 292.242 26.895C291.802 26.895 291.325 26.8583 290.812 26.785C290.298 26.7117 289.803 26.5833 289.327 26.4C288.887 26.18 288.52 25.8867 288.227 25.52C287.933 25.1533 287.787 24.6767 287.787 24.09C287.787 23.65 287.915 23.0083 288.172 22.165C288.465 21.285 288.85 20.3867 289.327 19.47C289.51 19.0667 289.547 18.8467 289.437 18.81C289.363 18.7733 288.923 18.8833 288.117 19.14C286.467 19.6533 284.89 20.295 283.387 21.065C281.883 21.835 280.178 22.9167 278.272 24.31C277.538 24.8233 277.062 25.1167 276.842 25.19C276.622 25.2633 276.365 25.2267 276.072 25.08C275.558 24.8233 275.265 24.4933 275.192 24.09C275.155 23.98 275.192 23.7967 275.302 23.54C275.412 23.2467 275.65 22.7333 276.017 22C276.823 20.35 277.575 18.9383 278.272 17.765C279.005 16.5917 279.592 15.7667 280.032 15.29C280.252 15.0333 280.435 14.905 280.582 14.905C280.728 14.8683 280.948 14.9233 281.242 15.07C281.498 15.18 281.7 15.3267 281.847 15.51C281.993 15.6933 282.03 15.8767 281.957 16.06C281.957 16.1333 281.883 16.3167 281.737 16.61C281.59 16.8667 281.425 17.1417 281.242 17.435C281.022 17.7283 280.783 18.0767 280.527 18.48C280.307 18.8833 280.087 19.2867 279.867 19.69C279.647 20.0567 279.445 20.405 279.262 20.735C279.078 21.0283 278.95 21.2483 278.877 21.395L278.712 21.78L279.702 21.175C281.058 20.3683 282.452 19.6533 283.882 19.03C285.348 18.4067 286.778 17.93 288.172 17.6C288.648 17.4533 289.107 17.3983 289.547 17.435C290.023 17.4717 290.39 17.5633 290.647 17.71C291.123 18.0033 291.38 18.3517 291.417 18.755C291.453 19.1217 291.307 19.7083 290.977 20.515C290.647 21.3583 290.372 22.0183 290.152 22.495C289.968 22.9717 289.822 23.3567 289.712 23.65C289.638 23.9067 289.583 24.1083 289.547 24.255C289.51 24.4017 289.492 24.5483 289.492 24.695C289.455 24.9883 289.437 25.1717 289.437 25.245C289.473 25.2817 289.565 25.3367 289.712 25.41C289.968 25.4833 290.353 25.5017 290.867 25.465C291.93 25.3917 292.975 25.19 294.002 24.86C295.065 24.4933 296.11 24.145 297.137 23.815C297.65 23.6317 298.163 23.4667 298.677 23.32C299.227 23.1733 299.777 23.0267 300.327 22.88C301.573 22.5133 302.82 22.165 304.067 21.835C305.313 21.505 306.578 21.175 307.862 20.845C308.302 20.6983 308.742 20.57 309.182 20.46C309.658 20.35 310.135 20.24 310.612 20.13C310.795 20.0567 310.978 20.0017 311.162 19.965C311.382 19.9283 311.602 19.91 311.822 19.91C312.005 19.91 312.188 19.9833 312.372 20.13C312.555 20.2767 312.683 20.4783 312.757 20.735ZM341.298 20.735C341.408 21.0283 341.408 21.2483 341.298 21.395C341.188 21.505 340.821 21.6517 340.198 21.835C339.611 22.0183 338.859 22.2383 337.943 22.495C337.063 22.715 336.201 22.9533 335.358 23.21C335.284 23.21 335.23 23.2283 335.193 23.265C335.156 23.265 335.101 23.265 335.028 23.265C333.268 23.7783 331.508 24.2733 329.748 24.75C327.988 25.2267 326.228 25.7033 324.468 26.18C323.514 26.4367 322.543 26.6933 321.553 26.95C320.599 27.17 319.646 27.3717 318.693 27.555C317.959 27.7017 317.208 27.8117 316.438 27.885C315.704 27.9583 314.971 27.9217 314.238 27.775C313.174 27.5183 312.313 27.06 311.653 26.4C310.956 25.7033 310.571 24.915 310.498 24.035C310.424 22.8983 310.699 21.615 311.323 20.185C311.909 18.7183 312.808 17.2883 314.018 15.895C314.201 15.675 314.458 15.3817 314.788 15.015C315.154 14.6483 315.484 14.3183 315.778 14.025L316.823 12.925H315.778C315.154 12.925 314.696 12.8883 314.403 12.815C314.109 12.705 313.853 12.5033 313.633 12.21C313.486 11.99 313.394 11.825 313.358 11.715C313.358 11.5683 313.449 11.4583 313.633 11.385C313.816 11.3117 314.128 11.2567 314.568 11.22C315.044 11.1833 315.704 11.1467 316.548 11.11L319.023 11L319.683 10.45C320.636 9.60667 321.718 8.83667 322.928 8.14C324.138 7.44333 325.201 6.96667 326.118 6.71C326.521 6.6 326.833 6.545 327.053 6.545C327.309 6.50833 327.584 6.545 327.878 6.655C328.721 6.91166 329.234 7.40667 329.418 8.14C329.638 8.83667 329.455 9.55167 328.868 10.285L328.648 10.615L329.473 10.67C330.499 10.7067 331.196 11.055 331.563 11.715C331.636 11.8983 331.636 12.045 331.563 12.155C331.489 12.265 331.306 12.3017 331.013 12.265C330.866 12.1917 330.628 12.155 330.298 12.155C330.005 12.155 329.491 12.1917 328.758 12.265L326.888 12.375L326.008 13.09C325.714 13.3467 325.274 13.6767 324.688 14.08C324.138 14.4467 323.533 14.85 322.873 15.29C322.213 15.73 321.534 16.17 320.838 16.61C320.178 17.0133 319.573 17.38 319.023 17.71C318.876 17.7833 318.638 17.9117 318.308 18.095C318.014 18.2783 317.703 18.4617 317.373 18.645C316.859 18.9383 316.309 19.2867 315.723 19.69C315.136 20.0567 314.586 20.4783 314.073 20.955C313.559 21.4317 313.138 21.9633 312.808 22.55C312.478 23.1367 312.313 23.7783 312.313 24.475C312.313 25.025 312.349 25.41 312.423 25.63C312.533 25.8133 312.789 26.015 313.193 26.235C313.413 26.3083 313.596 26.3633 313.743 26.4C313.926 26.4367 314.238 26.455 314.678 26.455C316.034 26.4183 317.336 26.235 318.583 25.905C319.866 25.5383 321.149 25.1533 322.433 24.75C324.339 24.1267 326.246 23.5583 328.153 23.045C330.059 22.5317 331.985 22.0183 333.928 21.505C335.395 21.065 336.88 20.68 338.383 20.35C338.676 20.2767 338.988 20.185 339.318 20.075C339.684 19.965 340.014 19.91 340.308 19.91C340.711 19.91 341.041 20.185 341.298 20.735ZM322.378 10.835L324.138 10.78L325.898 10.725L326.613 10.065C326.979 9.69833 327.273 9.35 327.493 9.02C327.749 8.65333 327.914 8.36 327.988 8.14C328.024 7.99333 328.024 7.92 327.988 7.92C327.951 7.92 327.749 7.95667 327.383 8.03C327.126 8.10333 326.778 8.23167 326.338 8.415C325.898 8.59833 325.439 8.81833 324.963 9.075C324.523 9.33166 324.083 9.60667 323.643 9.9C323.203 10.1567 322.854 10.395 322.598 10.615L322.378 10.835ZM315.228 17.82L316.438 17.105C317.171 16.665 317.941 16.2067 318.748 15.73C319.591 15.2167 320.361 14.74 321.058 14.3C321.791 13.86 322.378 13.4933 322.818 13.2C323.294 12.87 323.533 12.6867 323.533 12.65C323.533 12.6133 322.781 12.6317 321.278 12.705L320.178 12.76L319.188 13.64C318.674 14.1533 318.069 14.7583 317.373 15.455C316.676 16.1517 316.126 16.7383 315.723 17.215L315.228 17.82ZM370.26 20.295C370.406 20.5883 370.406 20.8083 370.26 20.955C370.15 21.065 369.783 21.2117 369.16 21.395C368.573 21.5783 367.986 21.7433 367.4 21.89C366.813 22.0367 366.226 22.2017 365.64 22.385C364.356 22.7517 363.055 23.1183 361.735 23.485C360.451 23.8517 359.168 24.2183 357.885 24.585C357.628 24.6583 357.316 24.7317 356.95 24.805C356.436 24.8783 355.923 24.8967 355.41 24.86C354.933 24.8233 354.456 24.7683 353.98 24.695C353.723 24.6583 353.485 24.64 353.265 24.64C353.045 24.6033 352.825 24.5483 352.605 24.475L351.945 24.31C351.835 24.31 351.743 24.2917 351.67 24.255C351.596 24.255 351.505 24.2367 351.395 24.2C351.285 24.31 351.156 24.4383 351.01 24.585C350.9 24.7317 350.753 24.8783 350.57 25.025C350.24 25.3917 349.965 25.6483 349.745 25.795C349.525 25.9417 349.25 26.1067 348.92 26.29C347.16 27.17 345.913 27.0783 345.18 26.015C345.033 25.7583 344.96 25.4833 344.96 25.19C344.96 25.0067 344.978 24.8783 345.015 24.805C345.051 24.695 345.198 24.53 345.455 24.31C345.931 23.87 346.573 23.485 347.38 23.155C348.186 22.825 349.011 22.605 349.855 22.495L350.405 22.44L350.735 21.78C350.918 21.3767 351.065 20.9917 351.175 20.625C351.321 20.2217 351.376 19.965 351.34 19.855C351.303 19.745 351.12 19.7083 350.79 19.745C350.46 19.745 350.038 19.8 349.525 19.91C349.048 20.02 348.498 20.1667 347.875 20.35C347.288 20.4967 346.683 20.68 346.06 20.9C344.776 21.4133 343.805 21.78 343.145 22C342.521 22.1833 342.118 22.275 341.935 22.275C341.421 22.275 340.963 22.0733 340.56 21.67C340.156 21.23 339.955 20.7533 339.955 20.24C339.955 19.7267 340.175 19.1217 340.615 18.425C341.091 17.6917 341.678 16.9767 342.375 16.28C343.071 15.5833 343.841 14.9417 344.685 14.355C345.565 13.7317 346.39 13.2733 347.16 12.98C347.306 12.9433 347.471 12.9067 347.655 12.87C347.838 12.8333 347.985 12.815 348.095 12.815C348.461 12.815 348.791 12.98 349.085 13.31C349.415 13.6033 349.543 13.8967 349.47 14.19C349.47 14.3733 349.323 14.465 349.03 14.465C348.736 14.5017 348.351 14.6483 347.875 14.905C347.398 15.125 346.903 15.4183 346.39 15.785C345.876 16.115 345.363 16.5 344.85 16.94C344.336 17.3433 343.896 17.7467 343.53 18.15C343.383 18.3333 343.218 18.5533 343.035 18.81C342.851 19.03 342.668 19.25 342.485 19.47C342.338 19.6533 342.21 19.8367 342.1 20.02C342.026 20.1667 342.008 20.24 342.045 20.24C342.045 20.2767 342.228 20.24 342.595 20.13C342.998 19.9833 343.456 19.8183 343.97 19.635C345.216 19.2317 346.28 18.92 347.16 18.7C348.076 18.4433 348.846 18.2967 349.47 18.26C350.093 18.2233 350.606 18.2783 351.01 18.425C351.45 18.535 351.816 18.755 352.11 19.085C352.806 19.8183 352.971 20.7533 352.605 21.89C352.568 22 352.531 22.0917 352.495 22.165C352.458 22.2383 352.44 22.2933 352.44 22.33L352.33 22.66C352.843 22.7333 353.32 22.7883 353.76 22.825C354.236 22.8617 354.731 22.9167 355.245 22.99H355.63C355.74 22.99 355.905 22.9533 356.125 22.88C356.675 22.7333 357.206 22.605 357.72 22.495C358.27 22.3483 358.801 22.2017 359.315 22.055C360.488 21.725 361.625 21.4133 362.725 21.12C363.861 20.79 365.016 20.4783 366.19 20.185C366.556 20.1117 366.905 20.02 367.235 19.91C367.601 19.8 367.968 19.7083 368.335 19.635C368.481 19.5983 368.628 19.5617 368.775 19.525C368.958 19.4883 369.123 19.47 369.27 19.47C369.673 19.47 370.003 19.745 370.26 20.295ZM379.026 29.755C378.513 30.2683 377.889 30.525 377.156 30.525C376.423 30.525 375.799 30.2683 375.286 29.755C374.773 29.205 374.516 28.5633 374.516 27.83C374.516 27.06 374.773 26.4183 375.286 25.905C375.799 25.3917 376.423 25.135 377.156 25.135C377.889 25.135 378.513 25.3917 379.026 25.905C379.576 26.4183 379.851 27.06 379.851 27.83C379.851 28.5633 379.576 29.205 379.026 29.755ZM425.868 2.365C426.088 2.29167 426.253 2.27333 426.363 2.31C426.473 2.31 426.675 2.365 426.968 2.475C427.481 2.65833 427.903 2.93333 428.233 3.3C428.6 3.66667 428.746 3.99667 428.673 4.29C428.636 4.36333 428.453 4.74833 428.123 5.445C427.793 6.14166 427.408 6.94833 426.968 7.865C426.528 8.78167 426.143 9.55167 425.813 10.175C425.52 10.7983 425.245 11.3667 424.988 11.88C424.768 12.3933 424.548 12.8883 424.328 13.365C424.145 13.805 423.943 14.3183 423.723 14.905C423.503 15.455 423.301 16.005 423.118 16.555C422.935 17.0683 422.77 17.545 422.623 17.985C422.476 18.3883 422.366 18.7367 422.293 19.03C422.256 19.2867 422.275 19.415 422.348 19.415C422.385 19.415 422.696 19.14 423.283 18.59C423.87 18.0033 424.566 17.2883 425.373 16.445C426.216 15.6017 427.041 14.7767 427.848 13.97C428.691 13.1633 429.296 12.595 429.663 12.265C430.396 11.605 431.203 10.9267 432.083 10.23C433 9.49667 433.935 8.78167 434.888 8.085C435.841 7.35167 436.795 6.655 437.748 5.995C438.701 5.335 439.6 4.74833 440.443 4.235C440.993 3.905 441.396 3.72167 441.653 3.685C441.91 3.61166 442.221 3.64833 442.588 3.795C443.468 4.19833 443.908 4.74833 443.908 5.445C443.908 5.885 443.615 6.61833 443.028 7.645C442.478 8.67167 441.525 10.175 440.168 12.155C439.325 13.4017 438.5 14.685 437.693 16.005C436.886 17.2883 436.061 18.645 435.218 20.075C432.211 25.2083 430.58 28.875 430.323 31.075C430.286 31.2217 430.25 31.3683 430.213 31.515C430.213 31.625 430.176 31.6983 430.103 31.735C429.883 32.0283 429.461 32.0833 428.838 31.9C428.215 31.7167 427.903 31.3133 427.903 30.69C427.866 30.3967 427.866 30.0667 427.903 29.7C427.94 29.2967 427.995 28.9667 428.068 28.71C428.288 27.7933 428.6 26.8217 429.003 25.795C429.443 24.7683 430.103 23.3933 430.983 21.67C431.496 20.6067 432.065 19.4883 432.688 18.315C433.348 17.105 433.99 15.9317 434.613 14.795C435.273 13.6217 435.896 12.54 436.483 11.55C437.106 10.56 437.638 9.735 438.078 9.075C438.371 8.635 438.646 8.23167 438.903 7.865C439.16 7.46167 439.325 7.22333 439.398 7.15L439.618 6.875L439.343 6.985C439.233 7.05833 438.995 7.22333 438.628 7.48C438.298 7.7 437.895 7.95667 437.418 8.25C436.978 8.54333 436.52 8.855 436.043 9.185C435.603 9.515 435.236 9.79 434.943 10.01C434.283 10.4867 433.678 10.9633 433.128 11.44C432.578 11.88 431.991 12.375 431.368 12.925C430.781 13.4383 430.158 14.025 429.498 14.685C428.838 15.3083 428.068 16.06 427.188 16.94C426.161 17.9667 425.355 18.7733 424.768 19.36C424.181 19.9467 423.705 20.3867 423.338 20.68C423.008 20.9367 422.733 21.1017 422.513 21.175C422.33 21.2483 422.128 21.285 421.908 21.285C421.651 21.285 421.358 21.2117 421.028 21.065C420.735 20.8817 420.515 20.6983 420.368 20.515C420.221 20.3317 420.148 19.9467 420.148 19.36C420.185 18.7733 420.295 18.1133 420.478 17.38C420.551 17.0867 420.68 16.61 420.863 15.95C421.083 15.2533 421.303 14.5383 421.523 13.805C421.78 13.0717 422 12.3933 422.183 11.77C422.403 11.1467 422.568 10.725 422.678 10.505C422.751 10.3583 422.825 10.1933 422.898 10.01C422.971 9.82667 423.045 9.64333 423.118 9.46C423.191 9.27667 423.265 9.075 423.338 8.855C423.338 8.855 423.21 8.98333 422.953 9.24C422.733 9.46 422.458 9.735 422.128 10.065C421.798 10.395 421.45 10.7433 421.083 11.11C420.753 11.44 420.478 11.7333 420.258 11.99C418.168 14.3 416.206 16.5367 414.373 18.7C412.54 20.8633 410.816 23.0267 409.203 25.19C408.616 25.96 408.158 26.565 407.828 27.005C407.498 27.4083 407.241 27.72 407.058 27.94C406.911 28.16 406.801 28.3067 406.728 28.38C406.655 28.4533 406.581 28.5083 406.508 28.545C406.105 28.7283 405.665 28.7283 405.188 28.545C404.748 28.3617 404.528 28.0867 404.528 27.72C404.528 27.3167 404.931 26.4733 405.738 25.19C406.545 23.9067 407.516 22.495 408.653 20.955C409.35 20.0383 410.065 19.1217 410.798 18.205C411.531 17.2883 412.375 16.2983 413.328 15.235C414.281 14.1717 415.363 12.98 416.573 11.66C417.82 10.34 419.286 8.8 420.973 7.04C421.963 6.05 422.751 5.26167 423.338 4.675C423.925 4.05167 424.383 3.575 424.713 3.245C425.043 2.915 425.281 2.695 425.428 2.585C425.611 2.475 425.758 2.40166 425.868 2.365ZM468.531 20.68C468.678 20.9733 468.696 21.175 468.586 21.285C468.476 21.395 468.109 21.5417 467.486 21.725C467.193 21.7983 466.881 21.89 466.551 22C466.221 22.11 465.854 22.22 465.451 22.33C465.231 22.4033 464.828 22.55 464.241 22.77C463.654 22.9533 462.939 23.1733 462.096 23.43C461.253 23.6867 460.336 23.9617 459.346 24.255C458.356 24.5117 457.348 24.75 456.321 24.97C456.101 25.0433 455.881 25.1167 455.661 25.19C455.441 25.2267 455.221 25.2817 455.001 25.355C453.754 25.7217 452.508 26.07 451.261 26.4C450.051 26.73 448.804 26.9317 447.521 27.005C446.678 27.0783 445.816 27.0417 444.936 26.895C444.093 26.7483 443.341 26.4183 442.681 25.905C441.948 25.3183 441.453 24.5667 441.196 23.65C440.939 22.7333 440.903 21.835 441.086 20.955C441.269 20.0383 441.618 19.2133 442.131 18.48C442.681 17.71 443.304 17.0133 444.001 16.39C444.404 16.06 444.826 15.7667 445.266 15.51C445.706 15.2167 446.183 14.9967 446.696 14.85C447.209 14.7033 447.723 14.6483 448.236 14.685C448.749 14.685 449.244 14.8133 449.721 15.07C450.234 15.3633 450.619 15.8217 450.876 16.445C451.169 17.0317 451.169 17.5817 450.876 18.095C450.729 18.3883 450.509 18.6267 450.216 18.81C449.959 18.9933 449.684 19.1583 449.391 19.305C447.521 20.2583 445.614 20.9 443.671 21.23C443.341 21.3033 443.121 21.395 443.011 21.505C442.901 21.6883 442.846 21.8533 442.846 22C442.773 22.33 442.736 22.66 442.736 22.99C442.736 23.2833 442.809 23.5767 442.956 23.87C443.213 24.31 443.579 24.6033 444.056 24.75C444.569 24.8967 445.083 24.97 445.596 24.97C446.843 24.9333 448.071 24.7867 449.281 24.53C450.528 24.2367 451.756 23.925 452.966 23.595C453.259 23.5217 453.589 23.4483 453.956 23.375C454.323 23.265 454.671 23.1733 455.001 23.1C455.404 22.99 455.808 22.88 456.211 22.77C456.468 22.6967 456.706 22.6417 456.926 22.605C457.146 22.5317 457.311 22.4767 457.421 22.44C458.778 22.0733 460.043 21.725 461.216 21.395C462.426 21.065 463.489 20.79 464.406 20.57C465.323 20.3133 466.056 20.13 466.606 20.02C467.156 19.8733 467.486 19.8 467.596 19.8C467.779 19.8 467.963 19.8917 468.146 20.075C468.329 20.2217 468.458 20.4233 468.531 20.68ZM444.716 18.755L445.761 18.425C446.678 18.095 447.521 17.7283 448.291 17.325C449.061 16.9217 449.428 16.6467 449.391 16.5C449.318 16.39 449.024 16.39 448.511 16.5C448.034 16.5733 447.576 16.72 447.136 16.94C446.843 17.0867 446.458 17.325 445.981 17.655C445.541 17.9483 445.229 18.2233 445.046 18.48L444.716 18.755ZM513.447 20.735C513.594 21.0283 513.612 21.23 513.502 21.34C513.392 21.45 513.025 21.5967 512.402 21.78C510.532 22.3667 508.662 22.9167 506.792 23.43C504.959 23.9067 503.107 24.42 501.237 24.97C499.88 25.41 498.505 25.8317 497.112 26.235C495.755 26.6017 494.362 26.8217 492.932 26.895C492.492 26.895 491.997 26.8583 491.447 26.785C490.934 26.7117 490.457 26.5833 490.017 26.4C489.577 26.18 489.21 25.8867 488.917 25.52C488.624 25.1533 488.477 24.6767 488.477 24.09C488.477 23.65 488.605 23.0083 488.862 22.165C489.155 21.285 489.54 20.3867 490.017 19.47C490.2 19.0667 490.237 18.8467 490.127 18.81C490.054 18.7733 489.614 18.8833 488.807 19.14C487.157 19.6533 485.58 20.295 484.077 21.065C482.574 21.835 480.869 22.9167 478.962 24.31C478.229 24.8233 477.752 25.1167 477.532 25.19C477.312 25.2633 477.055 25.2267 476.762 25.08C476.249 24.8233 475.955 24.4933 475.882 24.09C475.845 23.98 475.882 23.7967 475.992 23.54C476.102 23.2467 476.34 22.7333 476.707 22C477.257 20.9 477.789 19.8917 478.302 18.975C478.815 18.0217 479.292 17.2333 479.732 16.61C479.659 16.6467 479.585 16.6833 479.512 16.72C479.439 16.72 479.347 16.7383 479.237 16.775C477.587 17.3983 476.01 18.1867 474.507 19.14C473.004 20.0933 471.299 21.395 469.392 23.045C468.695 23.6317 468.219 23.98 467.962 24.09C467.742 24.2 467.485 24.1633 467.192 23.98C467.009 23.8333 466.844 23.65 466.697 23.43C466.514 23.1733 466.404 22.9533 466.367 22.77C466.33 22.6233 466.367 22.385 466.477 22.055C466.587 21.6883 466.807 21.0833 467.137 20.24C467.98 18.26 468.75 16.555 469.447 15.125C470.144 13.695 470.712 12.6867 471.152 12.1C471.409 11.8067 471.592 11.6417 471.702 11.605C471.849 11.5683 472.069 11.6417 472.362 11.825C472.619 11.9717 472.82 12.1733 472.967 12.43C473.114 12.65 473.169 12.87 473.132 13.09C473.095 13.1633 473.004 13.365 472.857 13.695C472.71 13.9883 472.545 14.3183 472.362 14.685C472.179 15.0883 471.959 15.5283 471.702 16.005C471.482 16.4817 471.262 16.9583 471.042 17.435C470.822 17.875 470.62 18.2783 470.437 18.645C470.254 19.0117 470.125 19.2867 470.052 19.47L469.832 19.965L470.822 19.25C473.645 17.2333 476.469 15.7667 479.292 14.85C479.695 14.74 480.099 14.7033 480.502 14.74C480.905 14.74 481.254 14.795 481.547 14.905C481.694 14.9783 481.822 15.0333 481.932 15.07C482.189 15.18 482.39 15.3267 482.537 15.51C482.684 15.6933 482.72 15.8767 482.647 16.06C482.647 16.1333 482.574 16.3167 482.427 16.61C482.28 16.8667 482.097 17.1417 481.877 17.435C481.694 17.7283 481.474 18.0767 481.217 18.48C480.997 18.8833 480.777 19.2867 480.557 19.69C480.337 20.0567 480.135 20.405 479.952 20.735C479.769 21.0283 479.64 21.2483 479.567 21.395L479.402 21.78L480.392 21.175C481.749 20.3683 483.142 19.6533 484.572 19.03C486.039 18.4067 487.469 17.93 488.862 17.6C489.339 17.4533 489.797 17.3983 490.237 17.435C490.714 17.4717 491.08 17.5633 491.337 17.71C491.814 18.0033 492.07 18.3517 492.107 18.755C492.144 19.1217 491.997 19.7083 491.667 20.515C491.337 21.3583 491.062 22.0183 490.842 22.495C490.659 22.9717 490.512 23.3567 490.402 23.65C490.329 23.9067 490.274 24.1083 490.237 24.255C490.2 24.4017 490.182 24.5483 490.182 24.695C490.145 24.9883 490.127 25.1717 490.127 25.245C490.164 25.2817 490.255 25.3367 490.402 25.41C490.659 25.4833 491.044 25.5017 491.557 25.465C492.62 25.3917 493.684 25.19 494.747 24.86C495.81 24.4933 496.837 24.145 497.827 23.815C498.34 23.6317 498.854 23.4667 499.367 23.32C499.917 23.1733 500.467 23.0267 501.017 22.88C502.264 22.5133 503.51 22.165 504.757 21.835C506.004 21.505 507.269 21.175 508.552 20.845C508.992 20.6983 509.432 20.57 509.872 20.46C510.349 20.35 510.825 20.24 511.302 20.13C511.485 20.0567 511.669 20.0017 511.852 19.965C512.072 19.9283 512.292 19.91 512.512 19.91C512.695 19.91 512.879 19.9833 513.062 20.13C513.245 20.2767 513.374 20.4783 513.447 20.735ZM541.739 20.68C541.849 20.9733 541.849 21.175 541.739 21.285C541.629 21.395 541.263 21.5417 540.639 21.725C538.879 22.275 537.119 22.7883 535.359 23.265C533.599 23.7417 531.839 24.2367 530.079 24.75C529.713 24.8233 529.346 24.915 528.979 25.025C528.649 25.0983 528.301 25.1717 527.934 25.245C527.531 25.3183 527.164 25.355 526.834 25.355C526.504 25.3183 526.138 25.2817 525.734 25.245C525.001 25.1717 524.268 25.08 523.534 24.97C522.838 24.86 522.141 24.695 521.444 24.475C521.224 24.4017 521.023 24.3467 520.839 24.31C520.656 24.2367 520.491 24.1633 520.344 24.09L519.959 23.925L519.079 24.53C518.199 25.19 517.264 25.7583 516.274 26.235C515.284 26.7117 514.294 27.0967 513.304 27.39C512.534 27.61 511.893 27.6833 511.379 27.61C510.866 27.5 510.408 27.2067 510.004 26.73C509.601 26.29 509.399 25.7767 509.399 25.19C509.399 24.75 509.619 24.1267 510.059 23.32C510.463 22.5133 510.976 21.6883 511.599 20.845C511.929 20.405 512.314 19.965 512.754 19.525C513.194 19.0483 513.653 18.59 514.129 18.15C514.606 17.71 515.064 17.325 515.504 16.995C515.981 16.6283 516.384 16.3533 516.714 16.17C517.301 15.8767 517.796 15.895 518.199 16.225C518.456 16.3717 518.694 16.4817 518.914 16.555C519.354 16.6283 519.831 16.83 520.344 17.16C520.894 17.4533 521.316 17.8017 521.609 18.205C522.049 18.865 522.233 19.58 522.159 20.35C522.123 21.12 521.829 21.8717 521.279 22.605L521.004 22.88L521.939 23.1C523.259 23.43 524.579 23.5217 525.899 23.375C527.256 23.2283 528.576 22.99 529.859 22.66C530.519 22.4767 531.161 22.2933 531.784 22.11C532.444 21.9267 533.104 21.7617 533.764 21.615C534.571 21.4317 535.378 21.23 536.184 21.01C536.991 20.7533 537.798 20.515 538.604 20.295C538.934 20.2217 539.283 20.13 539.649 20.02C540.053 19.91 540.419 19.855 540.749 19.855C541.153 19.855 541.483 20.13 541.739 20.68ZM518.144 18.535C517.851 18.9383 517.796 19.4883 517.979 20.185C518.089 20.515 518.254 20.8817 518.474 21.285C518.694 21.6517 518.859 21.835 518.969 21.835C519.079 21.835 519.263 21.6883 519.519 21.395C519.776 21.065 519.996 20.7533 520.179 20.46C520.326 20.13 520.436 19.7633 520.509 19.36C520.509 19.1033 520.491 18.9383 520.454 18.865C520.454 18.7917 520.399 18.6633 520.289 18.48C520.106 18.2967 519.886 18.1683 519.629 18.095C518.969 17.875 518.474 18.0217 518.144 18.535ZM518.034 22.77L517.484 22.11C517.338 21.9267 517.173 21.7067 516.989 21.45C516.843 21.1933 516.733 20.9733 516.659 20.79C516.439 20.4233 516.293 20.1117 516.219 19.855C516.183 19.7817 516.128 19.7633 516.054 19.8C515.981 19.8367 515.779 20.02 515.449 20.35C513.983 21.8533 512.846 23.32 512.039 24.75C511.746 25.2633 511.599 25.5933 511.599 25.74C511.563 25.85 511.636 25.8683 511.819 25.795C512.773 25.6117 513.763 25.2817 514.789 24.805C515.853 24.2917 516.788 23.7417 517.594 23.155L518.034 22.77ZM573.955 20.79C574.102 21.0833 574.12 21.285 574.01 21.395C573.9 21.505 573.533 21.6517 572.91 21.835C572.323 22.0183 571.572 22.2383 570.655 22.495C569.775 22.7517 568.913 23.0083 568.07 23.265C565.98 23.7783 563.927 24.365 561.91 25.025C559.893 25.6483 557.877 26.3267 555.86 27.06C554.687 27.5 553.513 27.94 552.34 28.38C551.203 28.82 550.048 29.205 548.875 29.535C548.142 29.755 547.408 29.9383 546.675 30.085C545.942 30.2317 545.19 30.2867 544.42 30.25C543.43 30.1767 542.623 29.9567 542 29.59C541.377 29.2233 541.028 28.7283 540.955 28.105C540.955 27.995 540.955 27.885 540.955 27.775C540.992 27.6283 541.047 27.4633 541.12 27.28C541.193 27.06 541.285 26.785 541.395 26.455C541.542 26.125 541.743 25.685 542 25.135C542.257 24.5483 542.367 24.145 542.33 23.925C542.33 23.6683 542.183 23.3567 541.89 22.99C541.047 22.0367 540.552 21.2667 540.405 20.68C540.258 20.0567 540.405 19.3233 540.845 18.48C541.688 16.83 542.678 15.7117 543.815 15.125C544.255 14.905 544.622 14.795 544.915 14.795C545.208 14.795 545.538 14.8867 545.905 15.07C546.235 15.2533 546.473 15.4733 546.62 15.73C546.803 15.9867 546.877 16.2617 546.84 16.555C546.803 16.6283 546.748 16.7567 546.675 16.94C546.602 17.1233 546.51 17.2883 546.4 17.435C546.253 17.655 546.033 17.93 545.74 18.26C545.447 18.5533 545.135 18.865 544.805 19.195C544.475 19.525 544.127 19.8367 543.76 20.13C543.43 20.4233 543.155 20.6433 542.935 20.79L542.165 21.34L542.33 21.615C542.367 21.6883 542.44 21.835 542.55 22.055C542.697 22.2383 542.862 22.4217 543.045 22.605C543.778 23.5217 544.127 24.255 544.09 24.805C544.09 24.9517 544.017 25.19 543.87 25.52C543.76 25.85 543.632 26.1983 543.485 26.565C543.118 27.4083 542.898 27.9583 542.825 28.215C542.788 28.435 542.807 28.5817 542.88 28.655C543.063 28.7283 543.485 28.7467 544.145 28.71C544.842 28.6733 545.392 28.6 545.795 28.49C546.345 28.3433 546.877 28.1783 547.39 27.995C547.94 27.8117 548.49 27.6283 549.04 27.445C550.213 27.0417 551.35 26.6017 552.45 26.125C553.55 25.6117 554.687 25.1533 555.86 24.75C558.28 23.8333 560.755 23.0633 563.285 22.44C564.422 22.1467 565.54 21.8533 566.64 21.56C567.74 21.23 568.84 20.9183 569.94 20.625C570.417 20.515 570.912 20.3683 571.425 20.185C571.975 20.0017 572.507 19.91 573.02 19.91C573.203 19.91 573.387 20.0017 573.57 20.185C573.753 20.3317 573.882 20.5333 573.955 20.79ZM582.583 13.53C582.179 13.8233 581.739 13.7317 581.263 13.255C580.969 12.9617 580.823 12.705 580.823 12.485C580.823 12.2283 580.859 12.0267 580.933 11.88C581.006 11.7333 581.208 11.55 581.538 11.33C581.868 11.0733 582.143 10.9083 582.363 10.835C582.656 10.6883 582.968 10.7067 583.298 10.89C583.628 11.0367 583.866 11.2933 584.013 11.66C584.159 11.9533 584.178 12.1733 584.068 12.32C583.994 12.5033 583.499 12.9067 582.583 13.53ZM596.113 20.68C596.223 20.9733 596.223 21.1933 596.113 21.34C596.003 21.45 595.636 21.5967 595.013 21.78C594.426 21.9633 593.674 22.1833 592.758 22.44C591.878 22.66 591.016 22.8983 590.173 23.155C589.879 23.2283 589.183 23.43 588.083 23.76C587.019 24.0533 585.846 24.3833 584.563 24.75C584.233 24.8233 583.903 24.915 583.573 25.025C583.243 25.0983 582.931 25.19 582.638 25.3C580.181 25.8867 578.256 26.235 576.863 26.345C575.506 26.455 574.516 26.4733 573.893 26.4C573.599 26.3633 573.379 26.3267 573.233 26.29C573.123 26.2533 572.958 26.18 572.738 26.07C571.968 25.7033 571.418 25.2083 571.088 24.585C570.758 23.925 570.739 23.2283 571.033 22.495C571.289 21.7617 571.748 20.9733 572.408 20.13C573.031 19.2867 573.801 18.4617 574.718 17.655C575.194 17.215 575.799 16.6833 576.533 16.06C577.303 15.4367 577.944 14.96 578.458 14.63C578.641 14.4833 578.824 14.3733 579.008 14.3C579.191 14.19 579.319 14.135 579.393 14.135C579.686 14.135 579.961 14.3 580.218 14.63C580.474 14.9233 580.566 15.18 580.493 15.4C580.419 15.5467 580.199 15.8033 579.833 16.17C579.466 16.5367 578.788 17.16 577.798 18.04C577.284 18.5167 576.771 19.0117 576.258 19.525C575.744 20.0017 575.268 20.46 574.828 20.9C574.388 21.34 574.003 21.7433 573.673 22.11C573.343 22.44 573.123 22.6967 573.013 22.88C572.939 22.9533 572.903 23.0083 572.903 23.045C572.793 23.4483 572.793 23.7783 572.903 24.035C572.976 24.255 573.104 24.4383 573.288 24.585C573.471 24.7317 573.728 24.8417 574.058 24.915C575.231 24.7317 576.276 24.5667 577.193 24.42C578.109 24.2733 578.879 24.1083 579.503 23.925C580.236 23.7783 580.896 23.595 581.483 23.375C581.923 23.265 582.289 23.1733 582.583 23.1C582.913 23.0267 583.169 22.9533 583.353 22.88C583.646 22.8067 583.939 22.7333 584.233 22.66C584.563 22.5867 584.801 22.5317 584.948 22.495C586.341 22.1283 587.624 21.78 588.798 21.45C590.008 21.12 591.053 20.845 591.933 20.625C592.849 20.3683 593.583 20.185 594.133 20.075C594.683 19.9283 595.013 19.855 595.123 19.855C595.526 19.855 595.856 20.13 596.113 20.68ZM622.037 20.68C622.183 20.9733 622.202 21.175 622.092 21.285C621.982 21.395 621.615 21.5417 620.992 21.725C620.698 21.7983 620.387 21.89 620.057 22C619.727 22.11 619.36 22.22 618.957 22.33C618.737 22.4033 618.333 22.55 617.747 22.77C617.16 22.9533 616.445 23.1733 615.602 23.43C614.758 23.6867 613.842 23.9617 612.852 24.255C611.862 24.5117 610.853 24.75 609.827 24.97C609.607 25.0433 609.387 25.1167 609.167 25.19C608.947 25.2267 608.727 25.2817 608.507 25.355C607.26 25.7217 606.013 26.07 604.767 26.4C603.557 26.73 602.31 26.9317 601.027 27.005C600.183 27.0783 599.322 27.0417 598.442 26.895C597.598 26.7483 596.847 26.4183 596.187 25.905C595.453 25.3183 594.958 24.5667 594.702 23.65C594.445 22.7333 594.408 21.835 594.592 20.955C594.775 20.0383 595.123 19.2133 595.637 18.48C596.187 17.71 596.81 17.0133 597.507 16.39C597.91 16.06 598.332 15.7667 598.772 15.51C599.212 15.2167 599.688 14.9967 600.202 14.85C600.715 14.7033 601.228 14.6483 601.742 14.685C602.255 14.685 602.75 14.8133 603.227 15.07C603.74 15.3633 604.125 15.8217 604.382 16.445C604.675 17.0317 604.675 17.5817 604.382 18.095C604.235 18.3883 604.015 18.6267 603.722 18.81C603.465 18.9933 603.19 19.1583 602.897 19.305C601.027 20.2583 599.12 20.9 597.177 21.23C596.847 21.3033 596.627 21.395 596.517 21.505C596.407 21.6883 596.352 21.8533 596.352 22C596.278 22.33 596.242 22.66 596.242 22.99C596.242 23.2833 596.315 23.5767 596.462 23.87C596.718 24.31 597.085 24.6033 597.562 24.75C598.075 24.8967 598.588 24.97 599.102 24.97C600.348 24.9333 601.577 24.7867 602.787 24.53C604.033 24.2367 605.262 23.925 606.472 23.595C606.765 23.5217 607.095 23.4483 607.462 23.375C607.828 23.265 608.177 23.1733 608.507 23.1C608.91 22.99 609.313 22.88 609.717 22.77C609.973 22.6967 610.212 22.6417 610.432 22.605C610.652 22.5317 610.817 22.4767 610.927 22.44C612.283 22.0733 613.548 21.725 614.722 21.395C615.932 21.065 616.995 20.79 617.912 20.57C618.828 20.3133 619.562 20.13 620.112 20.02C620.662 19.8733 620.992 19.8 621.102 19.8C621.285 19.8 621.468 19.8917 621.652 20.075C621.835 20.2217 621.963 20.4233 622.037 20.68ZM598.222 18.755L599.267 18.425C600.183 18.095 601.027 17.7283 601.797 17.325C602.567 16.9217 602.933 16.6467 602.897 16.5C602.823 16.39 602.53 16.39 602.017 16.5C601.54 16.5733 601.082 16.72 600.642 16.94C600.348 17.0867 599.963 17.325 599.487 17.655C599.047 17.9483 598.735 18.2233 598.552 18.48L598.222 18.755ZM651.168 20.295C651.315 20.5883 651.315 20.8083 651.168 20.955C651.058 21.065 650.691 21.2117 650.068 21.395C649.481 21.5783 648.894 21.7433 648.308 21.89C647.721 22.0367 647.134 22.2017 646.548 22.385C645.264 22.7517 643.963 23.1183 642.643 23.485C641.359 23.8517 640.076 24.2183 638.793 24.585C638.536 24.6583 638.224 24.7317 637.858 24.805C637.345 24.8783 636.831 24.8967 636.318 24.86C635.841 24.8233 635.364 24.7683 634.888 24.695C634.631 24.6583 634.393 24.64 634.173 24.64C633.953 24.6033 633.733 24.5483 633.513 24.475L632.853 24.31C632.743 24.31 632.651 24.2917 632.578 24.255C632.504 24.255 632.413 24.2367 632.303 24.2C632.193 24.31 632.064 24.4383 631.918 24.585C631.808 24.7317 631.661 24.8783 631.478 25.025C631.148 25.3917 630.873 25.6483 630.653 25.795C630.433 25.9417 630.158 26.1067 629.828 26.29C628.068 27.17 626.821 27.0783 626.088 26.015C625.941 25.7583 625.868 25.4833 625.868 25.19C625.868 25.0067 625.886 24.8783 625.923 24.805C625.959 24.695 626.106 24.53 626.363 24.31C626.839 23.87 627.481 23.485 628.288 23.155C629.094 22.825 629.919 22.605 630.763 22.495L631.313 22.44L631.643 21.78C631.826 21.3767 631.973 20.9917 632.083 20.625C632.229 20.2217 632.284 19.965 632.248 19.855C632.211 19.745 632.028 19.7083 631.698 19.745C631.368 19.745 630.946 19.8 630.433 19.91C629.956 20.02 629.406 20.1667 628.783 20.35C628.196 20.4967 627.591 20.68 626.968 20.9C625.684 21.4133 624.713 21.78 624.053 22C623.429 22.1833 623.026 22.275 622.843 22.275C622.329 22.275 621.871 22.0733 621.468 21.67C621.064 21.23 620.863 20.7533 620.863 20.24C620.863 19.7267 621.083 19.1217 621.523 18.425C621.999 17.6917 622.586 16.9767 623.283 16.28C623.979 15.5833 624.749 14.9417 625.593 14.355C626.473 13.7317 627.298 13.2733 628.068 12.98C628.214 12.9433 628.379 12.9067 628.563 12.87C628.746 12.8333 628.893 12.815 629.003 12.815C629.369 12.815 629.699 12.98 629.993 13.31C630.323 13.6033 630.451 13.8967 630.378 14.19C630.378 14.3733 630.231 14.465 629.938 14.465C629.644 14.5017 629.259 14.6483 628.783 14.905C628.306 15.125 627.811 15.4183 627.298 15.785C626.784 16.115 626.271 16.5 625.758 16.94C625.244 17.3433 624.804 17.7467 624.438 18.15C624.291 18.3333 624.126 18.5533 623.943 18.81C623.759 19.03 623.576 19.25 623.393 19.47C623.246 19.6533 623.118 19.8367 623.008 20.02C622.934 20.1667 622.916 20.24 622.953 20.24C622.953 20.2767 623.136 20.24 623.503 20.13C623.906 19.9833 624.364 19.8183 624.878 19.635C626.124 19.2317 627.188 18.92 628.068 18.7C628.984 18.4433 629.754 18.2967 630.378 18.26C631.001 18.2233 631.514 18.2783 631.918 18.425C632.358 18.535 632.724 18.755 633.018 19.085C633.714 19.8183 633.879 20.7533 633.513 21.89C633.476 22 633.439 22.0917 633.403 22.165C633.366 22.2383 633.348 22.2933 633.348 22.33L633.238 22.66C633.751 22.7333 634.228 22.7883 634.668 22.825C635.144 22.8617 635.639 22.9167 636.153 22.99H636.538C636.648 22.99 636.813 22.9533 637.033 22.88C637.583 22.7333 638.114 22.605 638.628 22.495C639.178 22.3483 639.709 22.2017 640.223 22.055C641.396 21.725 642.533 21.4133 643.633 21.12C644.77 20.79 645.925 20.4783 647.098 20.185C647.465 20.1117 647.813 20.02 648.143 19.91C648.51 19.8 648.876 19.7083 649.243 19.635C649.389 19.5983 649.536 19.5617 649.683 19.525C649.866 19.4883 650.031 19.47 650.178 19.47C650.581 19.47 650.911 19.745 651.168 20.295Z" fill="#2E2B29"/>
</svg>
